<?xml version="1.0" standalone="no"?>
<!DOCTYPE svg PUBLIC "-//W3C//DTD SVG 20010904//EN"
 "http://www.w3.org/TR/2001/REC-SVG-20010904/DTD/svg10.dtd">
<svg version="1.0" xmlns="http://www.w3.org/2000/svg"
 width="512.000000pt" height="512.000000pt" viewBox="0 0 512.000000 512.000000"
 preserveAspectRatio="xMidYMid meet">

<g transform="translate(0.000000,512.000000) scale(0.100000,-0.100000)"
fill="#000000" stroke="none">
<path d="M180 4812 c-57 -28 -70 -67 -70 -207 0 -94 4 -128 18 -155 23 -47 72
-70 150 -70 l62 0 0 -1855 0 -1855 -103 0 c-67 0 -107 -4 -115 -12 -8 -8 -12
-61 -12 -174 0 -134 3 -165 16 -178 14 -14 248 -16 2425 -16 1642 0 2416 3
2430 10 18 10 19 23 19 178 0 117 -4 172 -12 180 -9 9 -207 12 -830 12 l-818
0 0 544 0 544 152 112 c84 61 216 157 292 213 77 56 208 152 292 212 192 139
565 410 708 515 187 136 223 185 213 289 -9 99 -59 170 -147 210 -53 24 -78
26 -147 8 -52 -14 -61 -20 -337 -222 -90 -66 -189 -138 -220 -160 -31 -22
-105 -76 -164 -119 -59 -43 -170 -124 -247 -179 -77 -56 -198 -144 -270 -197
-71 -53 -191 -140 -265 -193 -74 -54 -153 -111 -175 -127 -36 -27 -76 -42
-190 -71 -22 -6 -44 -14 -49 -20 -6 -5 -14 -9 -18 -9 -4 0 -8 531 -8 1180 l0
1180 53 0 c80 0 125 16 147 53 17 28 20 51 20 170 0 158 -10 190 -65 213 -29
12 -238 14 -1367 14 -1249 0 -1335 -1 -1368 -18z m2500 -2287 l0 -1855 -1132
2 -1133 3 -3 1853 -2 1852 1135 0 1135 0 0 -1855z m2146 706 c53 -24 86 -71
91 -130 6 -72 -17 -105 -142 -198 -90 -67 -111 -79 -116 -65 -3 9 -21 84 -39
167 l-33 149 34 29 c42 36 106 67 139 67 14 0 43 -9 66 -19z m-277 -278 c18
-82 34 -157 37 -169 4 -17 -5 -29 -46 -58 -34 -25 -52 -32 -55 -24 -6 18 -74
332 -72 334 1 1 22 15 46 33 24 17 47 31 51 31 4 0 22 -66 39 -147z m-170
-138 c18 -82 33 -155 34 -162 2 -15 -175 -145 -184 -135 -9 10 -71 310 -67
322 5 16 172 138 179 131 3 -3 20 -73 38 -156z m-260 -177 c18 -84 34 -161 37
-170 4 -12 -10 -28 -43 -52 -26 -20 -50 -36 -53 -36 -3 0 -21 71 -39 158 -19
86 -36 162 -38 169 -4 10 81 82 98 83 3 0 20 -69 38 -152z m-170 -140 c17 -81
31 -153 31 -161 0 -12 -162 -137 -178 -137 -4 0 -23 74 -43 165 l-35 164 90
66 c49 36 92 62 96 58 4 -4 21 -74 39 -155z m-259 -183 c17 -82 33 -157 36
-165 4 -14 -91 -89 -100 -79 -10 10 -75 334 -69 340 26 25 89 66 94 60 4 -3
21 -73 39 -156z m-170 -143 c27 -130 30 -156 19 -167 -8 -7 -49 -38 -92 -69
-52 -39 -79 -53 -82 -44 -3 7 -20 83 -38 168 l-34 155 91 67 c58 42 93 62 97
55 3 -7 21 -81 39 -165z m-282 -77 c7 -32 11 -59 9 -61 -1 -2 -30 5 -62 15
-41 12 -60 22 -60 33 0 18 74 78 90 74 5 -1 16 -29 23 -61z m-176 -285 c24
-25 29 -36 24 -58 -21 -89 -146 -78 -146 12 0 25 7 40 26 55 36 29 60 26 96
-9z m1858 -1326 l0 -114 -2365 0 -2365 0 0 115 0 114 2365 0 2365 -1 0 -114z"/>
<path d="M875 4061 c-60 -27 -103 -67 -133 -125 l-27 -51 0 -715 0 -715 27
-51 c30 -58 73 -98 133 -125 37 -17 82 -19 666 -19 698 0 684 -1 757 69 21 20
47 55 57 76 19 39 20 65 20 765 0 700 -1 726 -20 765 -10 21 -36 56 -57 76
-73 70 -59 69 -757 69 -584 0 -629 -2 -666 -19z m1339 -85 c23 -13 51 -42 64
-64 l22 -40 0 -699 c0 -784 5 -734 -74 -798 -38 -30 -38 -30 -182 -33 l-144
-3 0 178 c0 131 -4 193 -15 233 -9 30 -21 74 -26 97 -13 51 -55 100 -95 108
-16 3 -56 15 -89 26 -75 24 -159 24 -233 0 -31 -10 -71 -22 -89 -26 -38 -8
-81 -48 -89 -84 -3 -14 -15 -53 -27 -86 -17 -50 -21 -91 -25 -252 l-4 -193
-136 0 c-166 0 -206 14 -250 88 l-27 47 -3 678 c-2 452 1 691 8 717 13 48 49
92 92 113 29 15 103 17 657 17 l624 0 41 -24z"/>
<path d="M1522 3788 c-30 -30 -10 -55 231 -296 134 -133 250 -242 259 -242 23
0 41 27 35 52 -7 28 -478 498 -498 498 -8 0 -20 -5 -27 -12z"/>
<path d="M1793 3793 c-34 -13 -10 -52 101 -162 117 -117 133 -125 156 -81 10
20 1 32 -101 136 -106 107 -125 120 -156 107z"/>
<path d="M846 1948 c-22 -6 -55 -27 -76 -48 -58 -58 -62 -93 -58 -465 3 -364
5 -372 87 -430 l43 -30 679 -3 c460 -2 693 1 720 8 48 13 107 63 125 107 20
47 20 709 0 756 -17 43 -76 93 -123 106 -51 15 -1343 13 -1397 -1z m1404 -85
c54 -32 55 -38 55 -399 0 -322 -1 -333 -21 -361 -40 -54 -19 -53 -737 -53
-733 0 -710 -2 -742 60 -22 43 -22 667 0 710 32 61 6 59 743 60 612 0 677 -2
702 -17z"/>
<path d="M1045 1630 c-16 -51 -19 -50 508 -48 444 3 491 5 500 20 8 12 7 21
-2 32 -12 14 -69 16 -507 16 -488 0 -493 0 -499 -20z"/>
<path d="M1052 1338 c-20 -20 -14 -48 14 -58 15 -6 212 -10 489 -10 443 0 464
1 486 19 20 16 22 23 13 38 -11 17 -40 18 -500 21 -373 2 -493 -1 -502 -10z"/>
</g>
</svg>
